<?xml version="1.0" encoding="UTF-8" standalone="no"?>
<!DOCTYPE svg PUBLIC "-//W3C//DTD SVG 1.1//EN"
 "http://www.w3.org/Graphics/SVG/1.1/DTD/svg11.dtd">
<!-- Generated by graphviz version 2.41.20170704.2329 (20170704.2329)
 -->
<!-- Title: wann::WiSARD::predictProba Pages: 1 -->
<svg width="539pt" height="99pt"
 viewBox="0.00 0.00 539.18 99.00" xmlns="http://www.w3.org/2000/svg" xmlns:xlink="http://www.w3.org/1999/xlink">
<g id="graph0" class="graph" transform="scale(1 1) rotate(0) translate(4 95)">
<title>wann::WiSARD::predictProba</title>
<polygon fill="white" stroke="transparent" points="-4,4 -4,-95 535.181,-95 535.181,4 -4,4"/>
<!-- Node1 -->
<g id="node1" class="node">
<title>Node1</title>
<polygon fill="#bfbfbf" stroke="black" points="0,-41.5 0,-61.5 147.125,-61.5 147.125,-41.5 0,-41.5"/>
<text text-anchor="middle" x="73.5625" y="-48.5" font-family="Helvetica,sans-Serif" font-size="10.00">wann::WiSARD::predictProba</text>
</g>
<!-- Node2 -->
<g id="node2" class="node">
<title>Node2</title>
<g id="a_node2"><a xlink:href="classwann_1_1Discriminator.html#ad94e68e33ebbee6cb52896a5f2503118" target="_top" xlink:title="Recebe uma retina e a partir dela, retorna um vetor com os conteúdos das memórias associadas...">
<polygon fill="white" stroke="black" points="210.3605,-58.5 210.3605,-90.5 314.1335,-90.5 314.1335,-58.5 210.3605,-58.5"/>
<text text-anchor="start" x="218.3605" y="-77.5" font-family="Helvetica,sans-Serif" font-size="10.00">wann::Discriminator</text>
<text text-anchor="middle" x="262.247" y="-65.5" font-family="Helvetica,sans-Serif" font-size="10.00">::predict</text>
</a>
</g>
</g>
<!-- Node1&#45;&gt;Node2 -->
<g id="edge1" class="edge">
<title>Node1&#45;&gt;Node2</title>
<path fill="none" stroke="midnightblue" d="M147.3235,-60.4912C164.6994,-62.6093 183.0544,-64.8467 199.8723,-66.8967"/>
<polygon fill="midnightblue" stroke="midnightblue" points="199.7726,-70.4104 210.1227,-68.1462 200.6197,-63.4618 199.7726,-70.4104"/>
</g>
<!-- Node3 -->
<g id="node3" class="node">
<title>Node3</title>
<g id="a_node3"><a xlink:href="classwann_1_1WiSARD.html#a5c42ea121c5a5dc7f55af6e4b674f3e5" target="_top" xlink:title="Responsável pela implmentação da técnica de bleaching. ">
<polygon fill="white" stroke="black" points="183.125,-19.5 183.125,-39.5 341.369,-39.5 341.369,-19.5 183.125,-19.5"/>
<text text-anchor="middle" x="262.247" y="-26.5" font-family="Helvetica,sans-Serif" font-size="10.00">wann::WiSARD::applyBleaching</text>
</a>
</g>
</g>
<!-- Node1&#45;&gt;Node3 -->
<g id="edge2" class="edge">
<title>Node1&#45;&gt;Node3</title>
<path fill="none" stroke="midnightblue" d="M147.3235,-42.8997C155.7183,-41.9209 164.3417,-40.9154 172.9098,-39.9164"/>
<polygon fill="midnightblue" stroke="midnightblue" points="173.3984,-43.3833 182.9257,-38.7486 172.5876,-36.4304 173.3984,-43.3833"/>
</g>
<!-- Node4 -->
<g id="node4" class="node">
<title>Node4</title>
<g id="a_node4"><a xlink:href="namespacewann_1_1util.html#a8d7912c21a484f6a7aaee40e79eb9cbf" target="_top" xlink:title="Calcula a confiança do resultado do processamento de uma WiSARD. ">
<polygon fill="white" stroke="black" points="377.369,-39.5 377.369,-59.5 531.181,-59.5 531.181,-39.5 377.369,-39.5"/>
<text text-anchor="middle" x="454.275" y="-46.5" font-family="Helvetica,sans-Serif" font-size="10.00">wann::util::calculateConfidence</text>
</a>
</g>
</g>
<!-- Node3&#45;&gt;Node4 -->
<g id="edge3" class="edge">
<title>Node3&#45;&gt;Node4</title>
<path fill="none" stroke="midnightblue" d="M341.4608,-37.7502C349.926,-38.6319 358.5711,-39.5323 367.1216,-40.4228"/>
<polygon fill="midnightblue" stroke="midnightblue" points="366.7905,-43.9072 377.0993,-41.462 367.5157,-36.9449 366.7905,-43.9072"/>
</g>
<!-- Node5 -->
<g id="node5" class="node">
<title>Node5</title>
<g id="a_node5"><a xlink:href="namespacewann_1_1util.html#ae68517805514787cde65a25b4435a727" target="_top" xlink:title="Obtém o maior valor de porcentagem de acertos de uma dada entrada. ">
<polygon fill="white" stroke="black" points="400.1545,-.5 400.1545,-20.5 508.3955,-20.5 508.3955,-.5 400.1545,-.5"/>
<text text-anchor="middle" x="454.275" y="-7.5" font-family="Helvetica,sans-Serif" font-size="10.00">wann::util::maxValue</text>
</a>
</g>
</g>
<!-- Node3&#45;&gt;Node5 -->
<g id="edge4" class="edge">
<title>Node3&#45;&gt;Node5</title>
<path fill="none" stroke="midnightblue" d="M341.4608,-21.6623C357.6479,-20.0607 374.4925,-18.394 390.0763,-16.8521"/>
<polygon fill="midnightblue" stroke="midnightblue" points="390.5088,-20.3265 400.1155,-15.8588 389.8194,-13.3605 390.5088,-20.3265"/>
</g>
</g>
</svg>
