<?xml version="1.0" encoding="UTF-8" standalone="no"?>
<!DOCTYPE svg PUBLIC "-//W3C//DTD SVG 1.1//EN"
 "http://www.w3.org/Graphics/SVG/1.1/DTD/svg11.dtd">
<!-- Generated by graphviz version 2.41.20170704.2329 (20170704.2329)
 -->
<!-- Title: wann::WiSARD::predict Pages: 1 -->
<svg width="696pt" height="99pt"
 viewBox="0.00 0.00 695.63 99.00" xmlns="http://www.w3.org/2000/svg" xmlns:xlink="http://www.w3.org/1999/xlink">
<g id="graph0" class="graph" transform="scale(1 1) rotate(0) translate(4 95)">
<title>wann::WiSARD::predict</title>
<polygon fill="white" stroke="transparent" points="-4,4 -4,-95 691.631,-95 691.631,4 -4,4"/>
<!-- Node1 -->
<g id="node1" class="node">
<title>Node1</title>
<polygon fill="#bfbfbf" stroke="black" points="0,-22.5 0,-42.5 120.45,-42.5 120.45,-22.5 0,-22.5"/>
<text text-anchor="middle" x="60.225" y="-29.5" font-family="Helvetica,sans-Serif" font-size="10.00">wann::WiSARD::predict</text>
</g>
<!-- Node2 -->
<g id="node2" class="node">
<title>Node2</title>
<g id="a_node2"><a xlink:href="classwann_1_1WiSARD.html#ae1b34db8c0236ef3845a446be8f63111" target="_top" xlink:title="Calcula a porcentagem de memórias ativadas para cada discriminador de cada entrada da matriz X...">
<polygon fill="white" stroke="black" points="156.45,-42.5 156.45,-62.5 303.575,-62.5 303.575,-42.5 156.45,-42.5"/>
<text text-anchor="middle" x="230.0125" y="-49.5" font-family="Helvetica,sans-Serif" font-size="10.00">wann::WiSARD::predictProba</text>
</a>
</g>
</g>
<!-- Node1&#45;&gt;Node2 -->
<g id="edge1" class="edge">
<title>Node1&#45;&gt;Node2</title>
<path fill="none" stroke="midnightblue" d="M120.5638,-39.6076C128.8533,-40.584 137.4846,-41.6007 146.1023,-42.6159"/>
<polygon fill="midnightblue" stroke="midnightblue" points="145.8505,-46.1103 156.1914,-43.8043 146.6695,-39.1584 145.8505,-46.1103"/>
</g>
<!-- Node7 -->
<g id="node7" class="node">
<title>Node7</title>
<g id="a_node7"><a xlink:href="namespacewann_1_1util.html#a75206e4eb67cb7e418fa0acf03ebfc0f" target="_top" xlink:title="Seleciona a label com maior porcentagem de acertos. ">
<polygon fill="white" stroke="black" points="181.451,-3.5 181.451,-23.5 278.574,-23.5 278.574,-3.5 181.451,-3.5"/>
<text text-anchor="middle" x="230.0125" y="-10.5" font-family="Helvetica,sans-Serif" font-size="10.00">wann::util::argMax</text>
</a>
</g>
</g>
<!-- Node1&#45;&gt;Node7 -->
<g id="edge6" class="edge">
<title>Node1&#45;&gt;Node7</title>
<path fill="none" stroke="midnightblue" d="M120.5638,-25.7478C137.0609,-23.9017 154.9116,-21.9041 171.3156,-20.0685"/>
<polygon fill="midnightblue" stroke="midnightblue" points="171.7687,-23.5397 181.3174,-18.9492 170.9901,-16.5831 171.7687,-23.5397"/>
</g>
<!-- Node3 -->
<g id="node3" class="node">
<title>Node3</title>
<g id="a_node3"><a xlink:href="classwann_1_1Discriminator.html#ad94e68e33ebbee6cb52896a5f2503118" target="_top" xlink:title="Recebe uma retina e a partir dela, retorna um vetor com os conteúdos das memórias associadas...">
<polygon fill="white" stroke="black" points="366.8105,-58.5 366.8105,-90.5 470.5835,-90.5 470.5835,-58.5 366.8105,-58.5"/>
<text text-anchor="start" x="374.8105" y="-77.5" font-family="Helvetica,sans-Serif" font-size="10.00">wann::Discriminator</text>
<text text-anchor="middle" x="418.697" y="-65.5" font-family="Helvetica,sans-Serif" font-size="10.00">::predict</text>
</a>
</g>
</g>
<!-- Node2&#45;&gt;Node3 -->
<g id="edge2" class="edge">
<title>Node2&#45;&gt;Node3</title>
<path fill="none" stroke="midnightblue" d="M303.7735,-61.1003C321.1494,-63.1263 339.5044,-65.2664 356.3223,-67.2273"/>
<polygon fill="midnightblue" stroke="midnightblue" points="356.2346,-70.7407 366.5727,-68.4225 357.0454,-63.7878 356.2346,-70.7407"/>
</g>
<!-- Node4 -->
<g id="node4" class="node">
<title>Node4</title>
<g id="a_node4"><a xlink:href="classwann_1_1WiSARD.html#a5c42ea121c5a5dc7f55af6e4b674f3e5" target="_top" xlink:title="Responsável pela implmentação da técnica de bleaching. ">
<polygon fill="white" stroke="black" points="339.575,-19.5 339.575,-39.5 497.819,-39.5 497.819,-19.5 339.575,-19.5"/>
<text text-anchor="middle" x="418.697" y="-26.5" font-family="Helvetica,sans-Serif" font-size="10.00">wann::WiSARD::applyBleaching</text>
</a>
</g>
</g>
<!-- Node2&#45;&gt;Node4 -->
<g id="edge3" class="edge">
<title>Node2&#45;&gt;Node4</title>
<path fill="none" stroke="midnightblue" d="M303.7735,-43.5088C312.1683,-42.4855 320.7917,-41.4343 329.3598,-40.3899"/>
<polygon fill="midnightblue" stroke="midnightblue" points="329.8727,-43.8534 339.3757,-39.169 329.0256,-36.9048 329.8727,-43.8534"/>
</g>
<!-- Node5 -->
<g id="node5" class="node">
<title>Node5</title>
<g id="a_node5"><a xlink:href="namespacewann_1_1util.html#a8d7912c21a484f6a7aaee40e79eb9cbf" target="_top" xlink:title="Calcula a confiança do resultado do processamento de uma WiSARD. ">
<polygon fill="white" stroke="black" points="533.819,-39.5 533.819,-59.5 687.631,-59.5 687.631,-39.5 533.819,-39.5"/>
<text text-anchor="middle" x="610.725" y="-46.5" font-family="Helvetica,sans-Serif" font-size="10.00">wann::util::calculateConfidence</text>
</a>
</g>
</g>
<!-- Node4&#45;&gt;Node5 -->
<g id="edge4" class="edge">
<title>Node4&#45;&gt;Node5</title>
<path fill="none" stroke="midnightblue" d="M497.9108,-37.7502C506.376,-38.6319 515.0211,-39.5323 523.5716,-40.4228"/>
<polygon fill="midnightblue" stroke="midnightblue" points="523.2405,-43.9072 533.5493,-41.462 523.9657,-36.9449 523.2405,-43.9072"/>
</g>
<!-- Node6 -->
<g id="node6" class="node">
<title>Node6</title>
<g id="a_node6"><a xlink:href="namespacewann_1_1util.html#ae68517805514787cde65a25b4435a727" target="_top" xlink:title="Obtém o maior valor de porcentagem de acertos de uma dada entrada. ">
<polygon fill="white" stroke="black" points="556.6045,-.5 556.6045,-20.5 664.8455,-20.5 664.8455,-.5 556.6045,-.5"/>
<text text-anchor="middle" x="610.725" y="-7.5" font-family="Helvetica,sans-Serif" font-size="10.00">wann::util::maxValue</text>
</a>
</g>
</g>
<!-- Node4&#45;&gt;Node6 -->
<g id="edge5" class="edge">
<title>Node4&#45;&gt;Node6</title>
<path fill="none" stroke="midnightblue" d="M497.9108,-21.6623C514.0979,-20.0607 530.9425,-18.394 546.5263,-16.8521"/>
<polygon fill="midnightblue" stroke="midnightblue" points="546.9588,-20.3265 556.5655,-15.8588 546.2694,-13.3605 546.9588,-20.3265"/>
</g>
</g>
</svg>
