<?xml version="1.0" encoding="UTF-8" standalone="no"?>
<!DOCTYPE svg PUBLIC "-//W3C//DTD SVG 1.1//EN"
 "http://www.w3.org/Graphics/SVG/1.1/DTD/svg11.dtd">
<!-- Generated by graphviz version 2.41.20170704.2329 (20170704.2329)
 -->
<!-- Title: wann::WiSARD::applyBleaching Pages: 1 -->
<svg width="506pt" height="29pt"
 viewBox="0.00 0.00 505.82 29.00" xmlns="http://www.w3.org/2000/svg" xmlns:xlink="http://www.w3.org/1999/xlink">
<g id="graph0" class="graph" transform="scale(1 1) rotate(0) translate(4 25)">
<title>wann::WiSARD::applyBleaching</title>
<polygon fill="white" stroke="transparent" points="-4,4 -4,-25 501.819,-25 501.819,4 -4,4"/>
<!-- Node1 -->
<g id="node1" class="node">
<title>Node1</title>
<polygon fill="#bfbfbf" stroke="black" points="0,-.5 0,-20.5 158.244,-20.5 158.244,-.5 0,-.5"/>
<text text-anchor="middle" x="79.122" y="-7.5" font-family="Helvetica,sans-Serif" font-size="10.00">wann::WiSARD::applyBleaching</text>
</g>
<!-- Node2 -->
<g id="node2" class="node">
<title>Node2</title>
<g id="a_node2"><a xlink:href="classwann_1_1WiSARD.html#ae1b34db8c0236ef3845a446be8f63111" target="_top" xlink:title="Calcula a porcentagem de memórias ativadas para cada discriminador de cada entrada da matriz X...">
<polygon fill="white" stroke="black" points="194.244,-.5 194.244,-20.5 341.369,-20.5 341.369,-.5 194.244,-.5"/>
<text text-anchor="middle" x="267.8065" y="-7.5" font-family="Helvetica,sans-Serif" font-size="10.00">wann::WiSARD::predictProba</text>
</a>
</g>
</g>
<!-- Node1&#45;&gt;Node2 -->
<g id="edge1" class="edge">
<title>Node1&#45;&gt;Node2</title>
<path fill="none" stroke="midnightblue" d="M168.4229,-10.5C177.0652,-10.5 185.764,-10.5 194.2282,-10.5"/>
<polygon fill="midnightblue" stroke="midnightblue" points="168.3211,-7.0001 158.3211,-10.5 168.3211,-14.0001 168.3211,-7.0001"/>
</g>
<!-- Node3 -->
<g id="node3" class="node">
<title>Node3</title>
<g id="a_node3"><a xlink:href="classwann_1_1WiSARD.html#af077c8ed75a22a62c290392c28944fd3" target="_top" xlink:title="Seleciona uma label para cada entrada, na qual a label selecionado teve maior porcentagem de memórias...">
<polygon fill="white" stroke="black" points="377.369,-.5 377.369,-20.5 497.819,-20.5 497.819,-.5 377.369,-.5"/>
<text text-anchor="middle" x="437.594" y="-7.5" font-family="Helvetica,sans-Serif" font-size="10.00">wann::WiSARD::predict</text>
</a>
</g>
</g>
<!-- Node2&#45;&gt;Node3 -->
<g id="edge2" class="edge">
<title>Node2&#45;&gt;Node3</title>
<path fill="none" stroke="midnightblue" d="M351.8598,-10.5C360.4656,-10.5 369.0829,-10.5 377.358,-10.5"/>
<polygon fill="midnightblue" stroke="midnightblue" points="351.7839,-7.0001 341.7839,-10.5 351.7838,-14.0001 351.7839,-7.0001"/>
</g>
</g>
</svg>
