<?xml version="1.0" encoding="UTF-8" standalone="no"?>
<!DOCTYPE svg PUBLIC "-//W3C//DTD SVG 1.1//EN"
 "http://www.w3.org/Graphics/SVG/1.1/DTD/svg11.dtd">
<!-- Generated by graphviz version 2.41.20170704.2329 (20170704.2329)
 -->
<!-- Title: wann::WiSARD::applyBleaching Pages: 1 -->
<svg width="356pt" height="68pt"
 viewBox="0.00 0.00 356.06 68.00" xmlns="http://www.w3.org/2000/svg" xmlns:xlink="http://www.w3.org/1999/xlink">
<g id="graph0" class="graph" transform="scale(1 1) rotate(0) translate(4 64)">
<title>wann::WiSARD::applyBleaching</title>
<polygon fill="white" stroke="transparent" points="-4,4 -4,-64 352.056,-64 352.056,4 -4,4"/>
<!-- Node1 -->
<g id="node1" class="node">
<title>Node1</title>
<polygon fill="#bfbfbf" stroke="black" points="0,-19.5 0,-39.5 158.244,-39.5 158.244,-19.5 0,-19.5"/>
<text text-anchor="middle" x="79.122" y="-26.5" font-family="Helvetica,sans-Serif" font-size="10.00">wann::WiSARD::applyBleaching</text>
</g>
<!-- Node2 -->
<g id="node2" class="node">
<title>Node2</title>
<g id="a_node2"><a xlink:href="namespacewann_1_1util.html#a8d7912c21a484f6a7aaee40e79eb9cbf" target="_top" xlink:title="Calcula a confiança do resultado do processamento de uma WiSARD. ">
<polygon fill="white" stroke="black" points="194.244,-39.5 194.244,-59.5 348.056,-59.5 348.056,-39.5 194.244,-39.5"/>
<text text-anchor="middle" x="271.15" y="-46.5" font-family="Helvetica,sans-Serif" font-size="10.00">wann::util::calculateConfidence</text>
</a>
</g>
</g>
<!-- Node1&#45;&gt;Node2 -->
<g id="edge1" class="edge">
<title>Node1&#45;&gt;Node2</title>
<path fill="none" stroke="midnightblue" d="M158.3358,-37.7502C166.801,-38.6319 175.4461,-39.5323 183.9966,-40.4228"/>
<polygon fill="midnightblue" stroke="midnightblue" points="183.6655,-43.9072 193.9743,-41.462 184.3907,-36.9449 183.6655,-43.9072"/>
</g>
<!-- Node3 -->
<g id="node3" class="node">
<title>Node3</title>
<g id="a_node3"><a xlink:href="namespacewann_1_1util.html#ae68517805514787cde65a25b4435a727" target="_top" xlink:title="Obtém o maior valor de porcentagem de acertos de uma dada entrada. ">
<polygon fill="white" stroke="black" points="217.0295,-.5 217.0295,-20.5 325.2705,-20.5 325.2705,-.5 217.0295,-.5"/>
<text text-anchor="middle" x="271.15" y="-7.5" font-family="Helvetica,sans-Serif" font-size="10.00">wann::util::maxValue</text>
</a>
</g>
</g>
<!-- Node1&#45;&gt;Node3 -->
<g id="edge2" class="edge">
<title>Node1&#45;&gt;Node3</title>
<path fill="none" stroke="midnightblue" d="M158.3358,-21.6623C174.5229,-20.0607 191.3675,-18.394 206.9513,-16.8521"/>
<polygon fill="midnightblue" stroke="midnightblue" points="207.3838,-20.3265 216.9905,-15.8588 206.6944,-13.3605 207.3838,-20.3265"/>
</g>
</g>
</svg>
