<?xml version="1.0" encoding="UTF-8" standalone="no"?>
<!DOCTYPE svg PUBLIC "-//W3C//DTD SVG 1.1//EN"
 "http://www.w3.org/Graphics/SVG/1.1/DTD/svg11.dtd">
<!-- Generated by graphviz version 2.41.20170704.2329 (20170704.2329)
 -->
<!-- Title: wann::Discriminator::predict Pages: 1 -->
<svg width="451pt" height="41pt"
 viewBox="0.00 0.00 451.35 41.00" xmlns="http://www.w3.org/2000/svg" xmlns:xlink="http://www.w3.org/1999/xlink">
<g id="graph0" class="graph" transform="scale(1 1) rotate(0) translate(4 37)">
<title>wann::Discriminator::predict</title>
<polygon fill="white" stroke="transparent" points="-4,4 -4,-37 447.348,-37 447.348,4 -4,4"/>
<!-- Node1 -->
<g id="node1" class="node">
<title>Node1</title>
<polygon fill="#bfbfbf" stroke="black" points="0,-.5 0,-32.5 103.773,-32.5 103.773,-.5 0,-.5"/>
<text text-anchor="start" x="8" y="-19.5" font-family="Helvetica,sans-Serif" font-size="10.00">wann::Discriminator</text>
<text text-anchor="middle" x="51.8865" y="-7.5" font-family="Helvetica,sans-Serif" font-size="10.00">::predict</text>
</g>
<!-- Node2 -->
<g id="node2" class="node">
<title>Node2</title>
<g id="a_node2"><a xlink:href="classwann_1_1WiSARD.html#ae1b34db8c0236ef3845a446be8f63111" target="_top" xlink:title="Calcula a porcentagem de memórias ativadas para cada discriminador de cada entrada da matriz X...">
<polygon fill="white" stroke="black" points="139.773,-6.5 139.773,-26.5 286.898,-26.5 286.898,-6.5 139.773,-6.5"/>
<text text-anchor="middle" x="213.3355" y="-13.5" font-family="Helvetica,sans-Serif" font-size="10.00">wann::WiSARD::predictProba</text>
</a>
</g>
</g>
<!-- Node1&#45;&gt;Node2 -->
<g id="edge1" class="edge">
<title>Node1&#45;&gt;Node2</title>
<path fill="none" stroke="midnightblue" d="M113.9662,-16.5C122.3909,-16.5 131.1022,-16.5 139.7052,-16.5"/>
<polygon fill="midnightblue" stroke="midnightblue" points="113.8587,-13.0001 103.8587,-16.5 113.8586,-20.0001 113.8587,-13.0001"/>
</g>
<!-- Node3 -->
<g id="node3" class="node">
<title>Node3</title>
<g id="a_node3"><a xlink:href="classwann_1_1WiSARD.html#af077c8ed75a22a62c290392c28944fd3" target="_top" xlink:title="Seleciona uma label para cada entrada, na qual a label selecionado teve maior porcentagem de memórias...">
<polygon fill="white" stroke="black" points="322.898,-6.5 322.898,-26.5 443.348,-26.5 443.348,-6.5 322.898,-6.5"/>
<text text-anchor="middle" x="383.123" y="-13.5" font-family="Helvetica,sans-Serif" font-size="10.00">wann::WiSARD::predict</text>
</a>
</g>
</g>
<!-- Node2&#45;&gt;Node3 -->
<g id="edge2" class="edge">
<title>Node2&#45;&gt;Node3</title>
<path fill="none" stroke="midnightblue" d="M297.3888,-16.5C305.9946,-16.5 314.6119,-16.5 322.887,-16.5"/>
<polygon fill="midnightblue" stroke="midnightblue" points="297.3129,-13.0001 287.3129,-16.5 297.3128,-20.0001 297.3129,-13.0001"/>
</g>
</g>
</svg>
