<?xml version="1.0" encoding="UTF-8" standalone="no"?>
<!DOCTYPE svg PUBLIC "-//W3C//DTD SVG 1.1//EN"
 "http://www.w3.org/Graphics/SVG/1.1/DTD/svg11.dtd">
<!-- Generated by graphviz version 2.41.20170704.2329 (20170704.2329)
 -->
<!-- Title: src/Discriminator.cpp Pages: 1 -->
<svg width="340pt" height="200pt"
 viewBox="0.00 0.00 340.45 200.00" xmlns="http://www.w3.org/2000/svg" xmlns:xlink="http://www.w3.org/1999/xlink">
<g id="graph0" class="graph" transform="scale(1 1) rotate(0) translate(4 196)">
<title>src/Discriminator.cpp</title>
<polygon fill="white" stroke="transparent" points="-4,4 -4,-196 336.455,-196 336.455,4 -4,4"/>
<!-- Node1 -->
<g id="node1" class="node">
<title>Node1</title>
<polygon fill="#bfbfbf" stroke="black" points="129.6265,-171.5 129.6265,-191.5 238.9505,-191.5 238.9505,-171.5 129.6265,-171.5"/>
<text text-anchor="middle" x="184.2885" y="-178.5" font-family="Helvetica,sans-Serif" font-size="10.00">src/Discriminator.cpp</text>
</g>
<!-- Node2 -->
<g id="node2" class="node">
<title>Node2</title>
<g id="a_node2"><a xlink:href="Discriminator_8hpp.html" target="_top" xlink:title="Arquivo de declaração da classe Discriminator. ">
<polygon fill="white" stroke="black" points="62.006,-114.5 62.006,-134.5 198.571,-134.5 198.571,-114.5 62.006,-114.5"/>
<text text-anchor="middle" x="130.2885" y="-121.5" font-family="Helvetica,sans-Serif" font-size="10.00">../include/Discriminator.hpp</text>
</a>
</g>
</g>
<!-- Node1&#45;&gt;Node2 -->
<g id="edge1" class="edge">
<title>Node1&#45;&gt;Node2</title>
<path fill="none" stroke="midnightblue" d="M174.6344,-171.3095C166.9554,-163.204 156.0303,-151.672 146.9457,-142.0826"/>
<polygon fill="midnightblue" stroke="midnightblue" points="149.2774,-139.4547 139.859,-134.6022 144.1957,-144.2689 149.2774,-139.4547"/>
</g>
<!-- Node3 -->
<g id="node3" class="node">
<title>Node3</title>
<g id="a_node3"><a xlink:href="Memory_8hpp.html" target="_top" xlink:title="Arquivo de declaração da classe Memory. ">
<polygon fill="white" stroke="black" points="4.729,-57.5 4.729,-77.5 81.848,-77.5 81.848,-57.5 4.729,-57.5"/>
<text text-anchor="middle" x="43.2885" y="-64.5" font-family="Helvetica,sans-Serif" font-size="10.00">./Memory.hpp</text>
</a>
</g>
</g>
<!-- Node1&#45;&gt;Node3 -->
<g id="edge5" class="edge">
<title>Node1&#45;&gt;Node3</title>
<path fill="none" stroke="midnightblue" d="M141.7594,-171.4628C108.0733,-162.6305 64.8257,-149.0247 53.2885,-135 42.6131,-122.023 40.6977,-102.7039 41.1122,-88.0547"/>
<polygon fill="midnightblue" stroke="midnightblue" points="44.6132,-88.1531 41.7768,-77.9451 37.6283,-87.6939 44.6132,-88.1531"/>
</g>
<!-- Node6 -->
<g id="node6" class="node">
<title>Node6</title>
<polygon fill="white" stroke="#bfbfbf" points="216.6755,-114.5 216.6755,-134.5 259.9015,-134.5 259.9015,-114.5 216.6755,-114.5"/>
<text text-anchor="middle" x="238.2885" y="-121.5" font-family="Helvetica,sans-Serif" font-size="10.00">cmath</text>
</g>
<!-- Node1&#45;&gt;Node6 -->
<g id="edge6" class="edge">
<title>Node1&#45;&gt;Node6</title>
<path fill="none" stroke="midnightblue" d="M193.9426,-171.3095C201.6216,-163.204 212.5467,-151.672 221.6313,-142.0826"/>
<polygon fill="midnightblue" stroke="midnightblue" points="224.3813,-144.2689 228.718,-134.6022 219.2996,-139.4547 224.3813,-144.2689"/>
</g>
<!-- Node7 -->
<g id="node7" class="node">
<title>Node7</title>
<polygon fill="white" stroke="#bfbfbf" points="278.122,-114.5 278.122,-134.5 332.455,-134.5 332.455,-114.5 278.122,-114.5"/>
<text text-anchor="middle" x="305.2885" y="-121.5" font-family="Helvetica,sans-Serif" font-size="10.00">iostream</text>
</g>
<!-- Node1&#45;&gt;Node7 -->
<g id="edge7" class="edge">
<title>Node1&#45;&gt;Node7</title>
<path fill="none" stroke="midnightblue" d="M205.6423,-171.4408C224.7906,-162.4205 253.1072,-149.0813 274.6658,-138.9255"/>
<polygon fill="midnightblue" stroke="midnightblue" points="276.1862,-142.0783 283.7411,-134.6504 273.2031,-135.7458 276.1862,-142.0783"/>
</g>
<!-- Node2&#45;&gt;Node3 -->
<g id="edge2" class="edge">
<title>Node2&#45;&gt;Node3</title>
<path fill="none" stroke="midnightblue" d="M114.7346,-114.3095C101.497,-105.6366 82.2716,-93.0407 67.0978,-83.0992"/>
<polygon fill="midnightblue" stroke="midnightblue" points="68.9904,-80.1549 58.7077,-77.6022 65.1542,-86.0102 68.9904,-80.1549"/>
</g>
<!-- Node5 -->
<g id="node5" class="node">
<title>Node5</title>
<polygon fill="white" stroke="#bfbfbf" points="108.6755,-57.5 108.6755,-77.5 151.9015,-77.5 151.9015,-57.5 108.6755,-57.5"/>
<text text-anchor="middle" x="130.2885" y="-64.5" font-family="Helvetica,sans-Serif" font-size="10.00">vector</text>
</g>
<!-- Node2&#45;&gt;Node5 -->
<g id="edge4" class="edge">
<title>Node2&#45;&gt;Node5</title>
<path fill="none" stroke="midnightblue" d="M130.2885,-114.3095C130.2885,-106.9335 130.2885,-96.72 130.2885,-87.715"/>
<polygon fill="midnightblue" stroke="midnightblue" points="133.7886,-87.6022 130.2885,-77.6022 126.7886,-87.6023 133.7886,-87.6022"/>
</g>
<!-- Node4 -->
<g id="node4" class="node">
<title>Node4</title>
<polygon fill="white" stroke="#bfbfbf" points="0,-.5 0,-20.5 86.577,-20.5 86.577,-.5 0,-.5"/>
<text text-anchor="middle" x="43.2885" y="-7.5" font-family="Helvetica,sans-Serif" font-size="10.00">unordered_map</text>
</g>
<!-- Node3&#45;&gt;Node4 -->
<g id="edge3" class="edge">
<title>Node3&#45;&gt;Node4</title>
<path fill="none" stroke="midnightblue" d="M43.2885,-57.3095C43.2885,-49.9335 43.2885,-39.72 43.2885,-30.715"/>
<polygon fill="midnightblue" stroke="midnightblue" points="46.7886,-30.6022 43.2885,-20.6022 39.7886,-30.6023 46.7886,-30.6022"/>
</g>
</g>
</svg>
