<?xml version="1.0" encoding="UTF-8" standalone="no"?>
<!DOCTYPE svg PUBLIC "-//W3C//DTD SVG 1.1//EN"
 "http://www.w3.org/Graphics/SVG/1.1/DTD/svg11.dtd">
<!-- Generated by graphviz version 2.41.20170704.2329 (20170704.2329)
 -->
<!-- Title: include/Discriminator.hpp Pages: 1 -->
<svg width="154pt" height="143pt"
 viewBox="0.00 0.00 154.40 143.00" xmlns="http://www.w3.org/2000/svg" xmlns:xlink="http://www.w3.org/1999/xlink">
<g id="graph0" class="graph" transform="scale(1 1) rotate(0) translate(4 139)">
<title>include/Discriminator.hpp</title>
<polygon fill="white" stroke="transparent" points="-4,4 -4,-139 150.4025,-139 150.4025,4 -4,4"/>
<!-- Node1 -->
<g id="node1" class="node">
<title>Node1</title>
<polygon fill="#bfbfbf" stroke="black" points="18.1745,-114.5 18.1745,-134.5 146.4025,-134.5 146.4025,-114.5 18.1745,-114.5"/>
<text text-anchor="middle" x="82.2885" y="-121.5" font-family="Helvetica,sans-Serif" font-size="10.00">include/Discriminator.hpp</text>
</g>
<!-- Node2 -->
<g id="node2" class="node">
<title>Node2</title>
<g id="a_node2"><a xlink:href="Memory_8hpp.html" target="_top" xlink:title="Arquivo de declaração da classe Memory. ">
<polygon fill="white" stroke="black" points="4.729,-57.5 4.729,-77.5 81.848,-77.5 81.848,-57.5 4.729,-57.5"/>
<text text-anchor="middle" x="43.2885" y="-64.5" font-family="Helvetica,sans-Serif" font-size="10.00">./Memory.hpp</text>
</a>
</g>
</g>
<!-- Node1&#45;&gt;Node2 -->
<g id="edge1" class="edge">
<title>Node1&#45;&gt;Node2</title>
<path fill="none" stroke="midnightblue" d="M75.3161,-114.3095C69.9366,-106.4472 62.3511,-95.3608 55.9127,-85.9507"/>
<polygon fill="midnightblue" stroke="midnightblue" points="58.736,-83.8789 50.2006,-77.6022 52.9589,-87.8317 58.736,-83.8789"/>
</g>
<!-- Node4 -->
<g id="node4" class="node">
<title>Node4</title>
<polygon fill="white" stroke="#bfbfbf" points="99.6755,-57.5 99.6755,-77.5 142.9015,-77.5 142.9015,-57.5 99.6755,-57.5"/>
<text text-anchor="middle" x="121.2885" y="-64.5" font-family="Helvetica,sans-Serif" font-size="10.00">vector</text>
</g>
<!-- Node1&#45;&gt;Node4 -->
<g id="edge3" class="edge">
<title>Node1&#45;&gt;Node4</title>
<path fill="none" stroke="midnightblue" d="M89.2609,-114.3095C94.6404,-106.4472 102.2259,-95.3608 108.6643,-85.9507"/>
<polygon fill="midnightblue" stroke="midnightblue" points="111.6181,-87.8317 114.3764,-77.6022 105.841,-83.8789 111.6181,-87.8317"/>
</g>
<!-- Node3 -->
<g id="node3" class="node">
<title>Node3</title>
<polygon fill="white" stroke="#bfbfbf" points="0,-.5 0,-20.5 86.577,-20.5 86.577,-.5 0,-.5"/>
<text text-anchor="middle" x="43.2885" y="-7.5" font-family="Helvetica,sans-Serif" font-size="10.00">unordered_map</text>
</g>
<!-- Node2&#45;&gt;Node3 -->
<g id="edge2" class="edge">
<title>Node2&#45;&gt;Node3</title>
<path fill="none" stroke="midnightblue" d="M43.2885,-57.3095C43.2885,-49.9335 43.2885,-39.72 43.2885,-30.715"/>
<polygon fill="midnightblue" stroke="midnightblue" points="46.7886,-30.6022 43.2885,-20.6022 39.7886,-30.6023 46.7886,-30.6022"/>
</g>
</g>
</svg>
