<?xml version="1.0" encoding="UTF-8" standalone="no"?>
<!DOCTYPE svg PUBLIC "-//W3C//DTD SVG 1.1//EN"
 "http://www.w3.org/Graphics/SVG/1.1/DTD/svg11.dtd">
<!-- Generated by graphviz version 2.41.20170704.2329 (20170704.2329)
 -->
<!-- Title: include/Discriminator.hpp Pages: 1 -->
<svg width="283pt" height="143pt"
 viewBox="0.00 0.00 283.33 143.00" xmlns="http://www.w3.org/2000/svg" xmlns:xlink="http://www.w3.org/1999/xlink">
<g id="graph0" class="graph" transform="scale(1 1) rotate(0) translate(4 139)">
<title>include/Discriminator.hpp</title>
<polygon fill="white" stroke="transparent" points="-4,4 -4,-139 279.3335,-139 279.3335,4 -4,4"/>
<!-- Node1 -->
<g id="node1" class="node">
<title>Node1</title>
<polygon fill="#bfbfbf" stroke="black" points="73.5575,-114.5 73.5575,-134.5 201.7855,-134.5 201.7855,-114.5 73.5575,-114.5"/>
<text text-anchor="middle" x="137.6715" y="-121.5" font-family="Helvetica,sans-Serif" font-size="10.00">include/Discriminator.hpp</text>
</g>
<!-- Node2 -->
<g id="node2" class="node">
<title>Node2</title>
<g id="a_node2"><a xlink:href="WiSARD_8hpp.html" target="_top" xlink:title="Arquivo de declaração da classe WiSARD. ">
<polygon fill="white" stroke="black" points="0,-57.5 0,-77.5 109.343,-77.5 109.343,-57.5 0,-57.5"/>
<text text-anchor="middle" x="54.6715" y="-64.5" font-family="Helvetica,sans-Serif" font-size="10.00">include/WiSARD.hpp</text>
</a>
</g>
</g>
<!-- Node1&#45;&gt;Node2 -->
<g id="edge1" class="edge">
<title>Node1&#45;&gt;Node2</title>
<path fill="none" stroke="midnightblue" d="M114.4017,-108.5195C99.9647,-98.605 81.8542,-86.1676 69.3818,-77.6022"/>
<polygon fill="midnightblue" stroke="midnightblue" points="112.608,-111.5336 122.8328,-114.3095 116.5708,-105.7633 112.608,-111.5336"/>
</g>
<!-- Node3 -->
<g id="node3" class="node">
<title>Node3</title>
<g id="a_node3"><a xlink:href="WiSARD_8cpp.html" target="_top" xlink:title="Arquivo de implementação da classe WiSARD. ">
<polygon fill="white" stroke="black" points="50.452,-.5 50.452,-20.5 140.891,-20.5 140.891,-.5 50.452,-.5"/>
<text text-anchor="middle" x="95.6715" y="-7.5" font-family="Helvetica,sans-Serif" font-size="10.00">src/WiSARD.cpp</text>
</a>
</g>
</g>
<!-- Node1&#45;&gt;Node3 -->
<g id="edge4" class="edge">
<title>Node1&#45;&gt;Node3</title>
<path fill="none" stroke="midnightblue" d="M133.0717,-104.4843C129.6964,-90.8846 124.6668,-72.6025 118.6715,-57 113.6965,-44.053 106.3839,-29.8555 101.3464,-20.5973"/>
<polygon fill="midnightblue" stroke="midnightblue" points="129.677,-105.3372 135.4108,-114.2464 136.4843,-103.7061 129.677,-105.3372"/>
</g>
<!-- Node4 -->
<g id="node4" class="node">
<title>Node4</title>
<g id="a_node4"><a xlink:href="Discriminator_8cpp.html" target="_top" xlink:title="Arquivo de implementação da classe Discriminator. ">
<polygon fill="white" stroke="black" points="166.0095,-57.5 166.0095,-77.5 275.3335,-77.5 275.3335,-57.5 166.0095,-57.5"/>
<text text-anchor="middle" x="220.6715" y="-64.5" font-family="Helvetica,sans-Serif" font-size="10.00">src/Discriminator.cpp</text>
</a>
</g>
</g>
<!-- Node1&#45;&gt;Node4 -->
<g id="edge3" class="edge">
<title>Node1&#45;&gt;Node4</title>
<path fill="none" stroke="midnightblue" d="M160.9413,-108.5195C175.3783,-98.605 193.4888,-86.1676 205.9612,-77.6022"/>
<polygon fill="midnightblue" stroke="midnightblue" points="158.7722,-105.7633 152.5102,-114.3095 162.735,-111.5336 158.7722,-105.7633"/>
</g>
<!-- Node2&#45;&gt;Node3 -->
<g id="edge2" class="edge">
<title>Node2&#45;&gt;Node3</title>
<path fill="none" stroke="midnightblue" d="M68.0192,-48.9435C74.7968,-39.5209 82.767,-28.4404 88.405,-20.6022"/>
<polygon fill="midnightblue" stroke="midnightblue" points="64.9995,-47.1477 62.0015,-57.3095 70.6821,-51.2352 64.9995,-47.1477"/>
</g>
</g>
</svg>
