<?xml version="1.0" encoding="UTF-8" standalone="no"?>
<!DOCTYPE svg PUBLIC "-//W3C//DTD SVG 1.1//EN"
 "http://www.w3.org/Graphics/SVG/1.1/DTD/svg11.dtd">
<!-- Generated by graphviz version 2.41.20170704.2329 (20170704.2329)
 -->
<!-- Title: src/Memory.cpp Pages: 1 -->
<svg width="296pt" height="143pt"
 viewBox="0.00 0.00 296.34 143.00" xmlns="http://www.w3.org/2000/svg" xmlns:xlink="http://www.w3.org/1999/xlink">
<g id="graph0" class="graph" transform="scale(1 1) rotate(0) translate(4 139)">
<title>src/Memory.cpp</title>
<polygon fill="white" stroke="transparent" points="-4,4 -4,-139 292.342,-139 292.342,4 -4,4"/>
<!-- Node1 -->
<g id="node1" class="node">
<title>Node1</title>
<polygon fill="#bfbfbf" stroke="black" points="123.6205,-114.5 123.6205,-134.5 210.7305,-134.5 210.7305,-114.5 123.6205,-114.5"/>
<text text-anchor="middle" x="167.1755" y="-121.5" font-family="Helvetica,sans-Serif" font-size="10.00">src/Memory.cpp</text>
</g>
<!-- Node2 -->
<g id="node2" class="node">
<title>Node2</title>
<g id="a_node2"><a xlink:href="Memory_8hpp.html" target="_top" xlink:title="Arquivo de declaração da classe Memory. ">
<polygon fill="white" stroke="black" points="0,-57.5 0,-77.5 114.351,-77.5 114.351,-57.5 0,-57.5"/>
<text text-anchor="middle" x="57.1755" y="-64.5" font-family="Helvetica,sans-Serif" font-size="10.00">../include/Memory.hpp</text>
</a>
</g>
</g>
<!-- Node1&#45;&gt;Node2 -->
<g id="edge1" class="edge">
<title>Node1&#45;&gt;Node2</title>
<path fill="none" stroke="midnightblue" d="M147.7629,-114.4408C130.5896,-105.5419 105.3041,-92.4394 85.8086,-82.3371"/>
<polygon fill="midnightblue" stroke="midnightblue" points="87.2531,-79.1437 76.764,-77.6504 84.0325,-85.3589 87.2531,-79.1437"/>
</g>
<!-- Node3 -->
<g id="node3" class="node">
<title>Node3</title>
<polygon fill="white" stroke="#bfbfbf" points="55.887,-.5 55.887,-20.5 142.464,-20.5 142.464,-.5 55.887,-.5"/>
<text text-anchor="middle" x="99.1755" y="-7.5" font-family="Helvetica,sans-Serif" font-size="10.00">unordered_map</text>
</g>
<!-- Node1&#45;&gt;Node3 -->
<g id="edge5" class="edge">
<title>Node1&#45;&gt;Node3</title>
<path fill="none" stroke="midnightblue" d="M161.141,-114.3833C149.7777,-95.3331 125.0428,-53.8658 110.4943,-29.4757"/>
<polygon fill="midnightblue" stroke="midnightblue" points="113.423,-27.5532 105.2943,-20.7579 107.4112,-31.1391 113.423,-27.5532"/>
</g>
<!-- Node4 -->
<g id="node4" class="node">
<title>Node4</title>
<polygon fill="white" stroke="#bfbfbf" points="169.8935,-57.5 169.8935,-77.5 216.4575,-77.5 216.4575,-57.5 169.8935,-57.5"/>
<text text-anchor="middle" x="193.1755" y="-64.5" font-family="Helvetica,sans-Serif" font-size="10.00">math.h</text>
</g>
<!-- Node1&#45;&gt;Node4 -->
<g id="edge3" class="edge">
<title>Node1&#45;&gt;Node4</title>
<path fill="none" stroke="midnightblue" d="M171.8238,-114.3095C175.2992,-106.6903 180.1557,-96.0435 184.359,-86.8285"/>
<polygon fill="midnightblue" stroke="midnightblue" points="187.6017,-88.153 188.5675,-77.6022 181.233,-85.2479 187.6017,-88.153"/>
</g>
<!-- Node5 -->
<g id="node5" class="node">
<title>Node5</title>
<polygon fill="white" stroke="#bfbfbf" points="234.009,-57.5 234.009,-77.5 288.342,-77.5 288.342,-57.5 234.009,-57.5"/>
<text text-anchor="middle" x="261.1755" y="-64.5" font-family="Helvetica,sans-Serif" font-size="10.00">iostream</text>
</g>
<!-- Node1&#45;&gt;Node5 -->
<g id="edge4" class="edge">
<title>Node1&#45;&gt;Node5</title>
<path fill="none" stroke="midnightblue" d="M183.9808,-114.3095C198.4172,-105.5556 219.4446,-92.8049 235.909,-82.8211"/>
<polygon fill="midnightblue" stroke="midnightblue" points="237.7797,-85.7801 244.5157,-77.6022 234.1501,-79.7945 237.7797,-85.7801"/>
</g>
<!-- Node2&#45;&gt;Node3 -->
<g id="edge2" class="edge">
<title>Node2&#45;&gt;Node3</title>
<path fill="none" stroke="midnightblue" d="M64.6843,-57.3095C70.5373,-49.3661 78.8152,-38.1319 85.7943,-28.6602"/>
<polygon fill="midnightblue" stroke="midnightblue" points="88.6174,-30.729 91.7317,-20.6022 82.982,-26.5766 88.6174,-30.729"/>
</g>
</g>
</svg>
