<?xml version="1.0" encoding="UTF-8" standalone="no"?>
<!DOCTYPE svg PUBLIC "-//W3C//DTD SVG 1.1//EN"
 "http://www.w3.org/Graphics/SVG/1.1/DTD/svg11.dtd">
<!-- Generated by graphviz version 2.41.20170704.2329 (20170704.2329)
 -->
<!-- Title: include/Memory.hpp Pages: 1 -->
<svg width="350pt" height="200pt"
 viewBox="0.00 0.00 350.23 200.00" xmlns="http://www.w3.org/2000/svg" xmlns:xlink="http://www.w3.org/1999/xlink">
<g id="graph0" class="graph" transform="scale(1 1) rotate(0) translate(4 196)">
<title>include/Memory.hpp</title>
<polygon fill="white" stroke="transparent" points="-4,4 -4,-196 346.2265,-196 346.2265,4 -4,4"/>
<!-- Node1 -->
<g id="node1" class="node">
<title>Node1</title>
<polygon fill="#bfbfbf" stroke="black" points="173.6645,-171.5 173.6645,-191.5 279.6785,-191.5 279.6785,-171.5 173.6645,-171.5"/>
<text text-anchor="middle" x="226.6715" y="-178.5" font-family="Helvetica,sans-Serif" font-size="10.00">include/Memory.hpp</text>
</g>
<!-- Node2 -->
<g id="node2" class="node">
<title>Node2</title>
<g id="a_node2"><a xlink:href="Discriminator_8hpp.html" target="_top" xlink:title="Arquivo de declaração da classe Discriminator. ">
<polygon fill="white" stroke="black" points="70.5575,-114.5 70.5575,-134.5 198.7855,-134.5 198.7855,-114.5 70.5575,-114.5"/>
<text text-anchor="middle" x="134.6715" y="-121.5" font-family="Helvetica,sans-Serif" font-size="10.00">include/Discriminator.hpp</text>
</a>
</g>
</g>
<!-- Node1&#45;&gt;Node2 -->
<g id="edge1" class="edge">
<title>Node1&#45;&gt;Node2</title>
<path fill="none" stroke="midnightblue" d="M201.3303,-165.7994C185.2554,-155.84 164.9322,-143.2484 150.9769,-134.6022"/>
<polygon fill="midnightblue" stroke="midnightblue" points="199.8797,-169.018 210.2237,-171.3095 203.5664,-163.0675 199.8797,-169.018"/>
</g>
<!-- Node5 -->
<g id="node5" class="node">
<title>Node5</title>
<g id="a_node5"><a xlink:href="Discriminator_8cpp.html" target="_top" xlink:title="Arquivo de implementação da classe Discriminator. ">
<polygon fill="white" stroke="black" points="170.0095,-57.5 170.0095,-77.5 279.3335,-77.5 279.3335,-57.5 170.0095,-57.5"/>
<text text-anchor="middle" x="224.6715" y="-64.5" font-family="Helvetica,sans-Serif" font-size="10.00">src/Discriminator.cpp</text>
</a>
</g>
</g>
<!-- Node1&#45;&gt;Node5 -->
<g id="edge6" class="edge">
<title>Node1&#45;&gt;Node5</title>
<path fill="none" stroke="midnightblue" d="M226.313,-161.0663C225.8833,-136.5741 225.1802,-96.4944 224.8515,-77.7579"/>
<polygon fill="midnightblue" stroke="midnightblue" points="222.819,-161.4462 226.494,-171.3833 229.818,-161.3234 222.819,-161.4462"/>
</g>
<!-- Node6 -->
<g id="node6" class="node">
<title>Node6</title>
<g id="a_node6"><a xlink:href="Memory_8cpp.html" target="_top" xlink:title="Arquivo de implementação da classe Memory. ">
<polygon fill="white" stroke="black" points="255.1165,-114.5 255.1165,-134.5 342.2265,-134.5 342.2265,-114.5 255.1165,-114.5"/>
<text text-anchor="middle" x="298.6715" y="-121.5" font-family="Helvetica,sans-Serif" font-size="10.00">src/Memory.cpp</text>
</a>
</g>
</g>
<!-- Node1&#45;&gt;Node6 -->
<g id="edge7" class="edge">
<title>Node1&#45;&gt;Node6</title>
<path fill="none" stroke="midnightblue" d="M247.5696,-164.9557C259.9721,-155.137 275.2955,-143.006 285.9108,-134.6022"/>
<polygon fill="midnightblue" stroke="midnightblue" points="245.2117,-162.3583 239.5437,-171.3095 249.5566,-167.8466 245.2117,-162.3583"/>
</g>
<!-- Node3 -->
<g id="node3" class="node">
<title>Node3</title>
<g id="a_node3"><a xlink:href="WiSARD_8hpp.html" target="_top" xlink:title="Arquivo de declaração da classe WiSARD. ">
<polygon fill="white" stroke="black" points="0,-57.5 0,-77.5 109.343,-77.5 109.343,-57.5 0,-57.5"/>
<text text-anchor="middle" x="54.6715" y="-64.5" font-family="Helvetica,sans-Serif" font-size="10.00">include/WiSARD.hpp</text>
</a>
</g>
</g>
<!-- Node2&#45;&gt;Node3 -->
<g id="edge2" class="edge">
<title>Node2&#45;&gt;Node3</title>
<path fill="none" stroke="midnightblue" d="M111.848,-108.2383C97.9987,-98.3707 80.7583,-86.0868 68.8501,-77.6022"/>
<polygon fill="midnightblue" stroke="midnightblue" points="110.1939,-111.3572 120.3691,-114.3095 114.2559,-105.6563 110.1939,-111.3572"/>
</g>
<!-- Node4 -->
<g id="node4" class="node">
<title>Node4</title>
<g id="a_node4"><a xlink:href="WiSARD_8cpp.html" target="_top" xlink:title="Arquivo de implementação da classe WiSARD. ">
<polygon fill="white" stroke="black" points="50.452,-.5 50.452,-20.5 140.891,-20.5 140.891,-.5 50.452,-.5"/>
<text text-anchor="middle" x="95.6715" y="-7.5" font-family="Helvetica,sans-Serif" font-size="10.00">src/WiSARD.cpp</text>
</a>
</g>
</g>
<!-- Node2&#45;&gt;Node4 -->
<g id="edge5" class="edge">
<title>Node2&#45;&gt;Node4</title>
<path fill="none" stroke="midnightblue" d="M131.0788,-104.048C128.3915,-90.4789 124.2243,-72.4011 118.6715,-57 113.9672,-43.9522 106.5995,-29.7752 101.4753,-20.5493"/>
<polygon fill="midnightblue" stroke="midnightblue" points="127.7043,-105.0435 132.9861,-114.2279 134.5846,-103.7544 127.7043,-105.0435"/>
</g>
<!-- Node2&#45;&gt;Node5 -->
<g id="edge4" class="edge">
<title>Node2&#45;&gt;Node5</title>
<path fill="none" stroke="midnightblue" d="M159.4618,-108.7994C175.1873,-98.84 195.0687,-86.2484 208.7206,-77.6022"/>
<polygon fill="midnightblue" stroke="midnightblue" points="157.3372,-106.0021 150.7617,-114.3095 161.0826,-111.9158 157.3372,-106.0021"/>
</g>
<!-- Node3&#45;&gt;Node4 -->
<g id="edge3" class="edge">
<title>Node3&#45;&gt;Node4</title>
<path fill="none" stroke="midnightblue" d="M68.0192,-48.9435C74.7968,-39.5209 82.767,-28.4404 88.405,-20.6022"/>
<polygon fill="midnightblue" stroke="midnightblue" points="64.9995,-47.1477 62.0015,-57.3095 70.6821,-51.2352 64.9995,-47.1477"/>
</g>
</g>
</svg>
