<?xml version="1.0" encoding="UTF-8" standalone="no"?>
<!DOCTYPE svg PUBLIC "-//W3C//DTD SVG 1.1//EN"
 "http://www.w3.org/Graphics/SVG/1.1/DTD/svg11.dtd">
<!-- Generated by graphviz version 2.41.20170704.2329 (20170704.2329)
 -->
<!-- Title: wann::util::maxValue Pages: 1 -->
<svg width="650pt" height="29pt"
 viewBox="0.00 0.00 650.06 29.00" xmlns="http://www.w3.org/2000/svg" xmlns:xlink="http://www.w3.org/1999/xlink">
<g id="graph0" class="graph" transform="scale(1 1) rotate(0) translate(4 25)">
<title>wann::util::maxValue</title>
<polygon fill="white" stroke="transparent" points="-4,4 -4,-25 646.06,-25 646.06,4 -4,4"/>
<!-- Node1 -->
<g id="node1" class="node">
<title>Node1</title>
<polygon fill="#bfbfbf" stroke="black" points="0,-.5 0,-20.5 108.241,-20.5 108.241,-.5 0,-.5"/>
<text text-anchor="middle" x="54.1205" y="-7.5" font-family="Helvetica,sans-Serif" font-size="10.00">wann::util::maxValue</text>
</g>
<!-- Node2 -->
<g id="node2" class="node">
<title>Node2</title>
<g id="a_node2"><a xlink:href="classwann_1_1WiSARD.html#a5c42ea121c5a5dc7f55af6e4b674f3e5" target="_top" xlink:title="Responsável pela implmentação da técnica de bleaching. ">
<polygon fill="white" stroke="black" points="144.241,-.5 144.241,-20.5 302.485,-20.5 302.485,-.5 144.241,-.5"/>
<text text-anchor="middle" x="223.363" y="-7.5" font-family="Helvetica,sans-Serif" font-size="10.00">wann::WiSARD::applyBleaching</text>
</a>
</g>
</g>
<!-- Node1&#45;&gt;Node2 -->
<g id="edge1" class="edge">
<title>Node1&#45;&gt;Node2</title>
<path fill="none" stroke="midnightblue" d="M118.8637,-10.5C127.0978,-10.5 135.5981,-10.5 144.0282,-10.5"/>
<polygon fill="midnightblue" stroke="midnightblue" points="118.6015,-7.0001 108.6015,-10.5 118.6014,-14.0001 118.6015,-7.0001"/>
</g>
<!-- Node3 -->
<g id="node3" class="node">
<title>Node3</title>
<g id="a_node3"><a xlink:href="classwann_1_1WiSARD.html#ae1b34db8c0236ef3845a446be8f63111" target="_top" xlink:title="Calcula a porcentagem de memórias ativadas para cada discriminador de cada entrada da matriz X...">
<polygon fill="white" stroke="black" points="338.485,-.5 338.485,-20.5 485.61,-20.5 485.61,-.5 338.485,-.5"/>
<text text-anchor="middle" x="412.0475" y="-7.5" font-family="Helvetica,sans-Serif" font-size="10.00">wann::WiSARD::predictProba</text>
</a>
</g>
</g>
<!-- Node2&#45;&gt;Node3 -->
<g id="edge2" class="edge">
<title>Node2&#45;&gt;Node3</title>
<path fill="none" stroke="midnightblue" d="M312.6639,-10.5C321.3062,-10.5 330.005,-10.5 338.4692,-10.5"/>
<polygon fill="midnightblue" stroke="midnightblue" points="312.5621,-7.0001 302.5621,-10.5 312.5621,-14.0001 312.5621,-7.0001"/>
</g>
<!-- Node4 -->
<g id="node4" class="node">
<title>Node4</title>
<g id="a_node4"><a xlink:href="classwann_1_1WiSARD.html#af077c8ed75a22a62c290392c28944fd3" target="_top" xlink:title="Seleciona uma label para cada entrada, na qual a label selecionado teve maior porcentagem de memórias...">
<polygon fill="white" stroke="black" points="521.61,-.5 521.61,-20.5 642.06,-20.5 642.06,-.5 521.61,-.5"/>
<text text-anchor="middle" x="581.835" y="-7.5" font-family="Helvetica,sans-Serif" font-size="10.00">wann::WiSARD::predict</text>
</a>
</g>
</g>
<!-- Node3&#45;&gt;Node4 -->
<g id="edge3" class="edge">
<title>Node3&#45;&gt;Node4</title>
<path fill="none" stroke="midnightblue" d="M496.1008,-10.5C504.7066,-10.5 513.3239,-10.5 521.599,-10.5"/>
<polygon fill="midnightblue" stroke="midnightblue" points="496.0249,-7.0001 486.0249,-10.5 496.0248,-14.0001 496.0249,-7.0001"/>
</g>
</g>
</svg>
