<?xml version="1.0" encoding="UTF-8" standalone="no"?>
<!DOCTYPE svg PUBLIC "-//W3C//DTD SVG 1.1//EN"
 "http://www.w3.org/Graphics/SVG/1.1/DTD/svg11.dtd">
<!-- Generated by graphviz version 2.41.20170704.2329 (20170704.2329)
 -->
<!-- Title: wann::util::calculateConfidence Pages: 1 -->
<svg width="696pt" height="29pt"
 viewBox="0.00 0.00 695.63 29.00" xmlns="http://www.w3.org/2000/svg" xmlns:xlink="http://www.w3.org/1999/xlink">
<g id="graph0" class="graph" transform="scale(1 1) rotate(0) translate(4 25)">
<title>wann::util::calculateConfidence</title>
<polygon fill="white" stroke="transparent" points="-4,4 -4,-25 691.631,-25 691.631,4 -4,4"/>
<!-- Node1 -->
<g id="node1" class="node">
<title>Node1</title>
<polygon fill="#bfbfbf" stroke="black" points="0,-.5 0,-20.5 153.812,-20.5 153.812,-.5 0,-.5"/>
<text text-anchor="middle" x="76.906" y="-7.5" font-family="Helvetica,sans-Serif" font-size="10.00">wann::util::calculateConfidence</text>
</g>
<!-- Node2 -->
<g id="node2" class="node">
<title>Node2</title>
<g id="a_node2"><a xlink:href="classwann_1_1WiSARD.html#a5c42ea121c5a5dc7f55af6e4b674f3e5" target="_top" xlink:title="Responsável pela implmentação da técnica de bleaching. ">
<polygon fill="white" stroke="black" points="189.812,-.5 189.812,-20.5 348.056,-20.5 348.056,-.5 189.812,-.5"/>
<text text-anchor="middle" x="268.934" y="-7.5" font-family="Helvetica,sans-Serif" font-size="10.00">wann::WiSARD::applyBleaching</text>
</a>
</g>
</g>
<!-- Node1&#45;&gt;Node2 -->
<g id="edge1" class="edge">
<title>Node1&#45;&gt;Node2</title>
<path fill="none" stroke="midnightblue" d="M163.931,-10.5C172.5241,-10.5 181.2141,-10.5 189.7224,-10.5"/>
<polygon fill="midnightblue" stroke="midnightblue" points="163.9047,-7.0001 153.9047,-10.5 163.9046,-14.0001 163.9047,-7.0001"/>
</g>
<!-- Node3 -->
<g id="node3" class="node">
<title>Node3</title>
<g id="a_node3"><a xlink:href="classwann_1_1WiSARD.html#ae1b34db8c0236ef3845a446be8f63111" target="_top" xlink:title="Calcula a porcentagem de memórias ativadas para cada discriminador de cada entrada da matriz X...">
<polygon fill="white" stroke="black" points="384.056,-.5 384.056,-20.5 531.181,-20.5 531.181,-.5 384.056,-.5"/>
<text text-anchor="middle" x="457.6185" y="-7.5" font-family="Helvetica,sans-Serif" font-size="10.00">wann::WiSARD::predictProba</text>
</a>
</g>
</g>
<!-- Node2&#45;&gt;Node3 -->
<g id="edge2" class="edge">
<title>Node2&#45;&gt;Node3</title>
<path fill="none" stroke="midnightblue" d="M358.2349,-10.5C366.8772,-10.5 375.576,-10.5 384.0402,-10.5"/>
<polygon fill="midnightblue" stroke="midnightblue" points="358.1331,-7.0001 348.1331,-10.5 358.1331,-14.0001 358.1331,-7.0001"/>
</g>
<!-- Node4 -->
<g id="node4" class="node">
<title>Node4</title>
<g id="a_node4"><a xlink:href="classwann_1_1WiSARD.html#af077c8ed75a22a62c290392c28944fd3" target="_top" xlink:title="Seleciona uma label para cada entrada, na qual a label selecionado teve maior porcentagem de memórias...">
<polygon fill="white" stroke="black" points="567.181,-.5 567.181,-20.5 687.631,-20.5 687.631,-.5 567.181,-.5"/>
<text text-anchor="middle" x="627.406" y="-7.5" font-family="Helvetica,sans-Serif" font-size="10.00">wann::WiSARD::predict</text>
</a>
</g>
</g>
<!-- Node3&#45;&gt;Node4 -->
<g id="edge3" class="edge">
<title>Node3&#45;&gt;Node4</title>
<path fill="none" stroke="midnightblue" d="M541.6718,-10.5C550.2776,-10.5 558.8949,-10.5 567.17,-10.5"/>
<polygon fill="midnightblue" stroke="midnightblue" points="541.5959,-7.0001 531.5959,-10.5 541.5958,-14.0001 541.5959,-7.0001"/>
</g>
</g>
</svg>
