<?xml version="1.0" encoding="UTF-8" standalone="no"?>
<!DOCTYPE svg PUBLIC "-//W3C//DTD SVG 1.1//EN"
 "http://www.w3.org/Graphics/SVG/1.1/DTD/svg11.dtd">
<!-- Generated by graphviz version 2.41.20170704.2329 (20170704.2329)
 -->
<!-- Title: include/Util.hpp Pages: 1 -->
<svg width="154pt" height="86pt"
 viewBox="0.00 0.00 153.51 86.00" xmlns="http://www.w3.org/2000/svg" xmlns:xlink="http://www.w3.org/1999/xlink">
<g id="graph0" class="graph" transform="scale(1 1) rotate(0) translate(4 82)">
<title>include/Util.hpp</title>
<polygon fill="white" stroke="transparent" points="-4,4 -4,-82 149.511,-82 149.511,4 -4,4"/>
<!-- Node1 -->
<g id="node1" class="node">
<title>Node1</title>
<polygon fill="#bfbfbf" stroke="black" points="19.05,-57.5 19.05,-77.5 103.395,-77.5 103.395,-57.5 19.05,-57.5"/>
<text text-anchor="middle" x="61.2225" y="-64.5" font-family="Helvetica,sans-Serif" font-size="10.00">include/Util.hpp</text>
</g>
<!-- Node2 -->
<g id="node2" class="node">
<title>Node2</title>
<polygon fill="white" stroke="#bfbfbf" points="0,-.5 0,-20.5 40.445,-20.5 40.445,-.5 0,-.5"/>
<text text-anchor="middle" x="20.2225" y="-7.5" font-family="Helvetica,sans-Serif" font-size="10.00">string</text>
</g>
<!-- Node1&#45;&gt;Node2 -->
<g id="edge1" class="edge">
<title>Node1&#45;&gt;Node2</title>
<path fill="none" stroke="midnightblue" d="M53.8925,-57.3095C48.2371,-49.4472 40.2627,-38.3608 33.4941,-28.9507"/>
<polygon fill="midnightblue" stroke="midnightblue" points="36.1697,-26.6765 27.489,-20.6022 30.487,-30.7641 36.1697,-26.6765"/>
</g>
<!-- Node3 -->
<g id="node3" class="node">
<title>Node3</title>
<polygon fill="white" stroke="#bfbfbf" points="58.934,-.5 58.934,-20.5 145.511,-20.5 145.511,-.5 58.934,-.5"/>
<text text-anchor="middle" x="102.2225" y="-7.5" font-family="Helvetica,sans-Serif" font-size="10.00">unordered_map</text>
</g>
<!-- Node1&#45;&gt;Node3 -->
<g id="edge2" class="edge">
<title>Node1&#45;&gt;Node3</title>
<path fill="none" stroke="midnightblue" d="M68.5525,-57.3095C74.2079,-49.4472 82.1823,-38.3608 88.9509,-28.9507"/>
<polygon fill="midnightblue" stroke="midnightblue" points="91.958,-30.7641 94.956,-20.6022 86.2753,-26.6765 91.958,-30.7641"/>
</g>
</g>
</svg>
