<?xml version="1.0" encoding="UTF-8" standalone="no"?>
<!DOCTYPE svg PUBLIC "-//W3C//DTD SVG 1.1//EN"
 "http://www.w3.org/Graphics/SVG/1.1/DTD/svg11.dtd">
<!-- Generated by graphviz version 2.41.20170704.2329 (20170704.2329)
 -->
<!-- Title: include/Util.hpp Pages: 1 -->
<svg width="182pt" height="86pt"
 viewBox="0.00 0.00 181.94 86.00" xmlns="http://www.w3.org/2000/svg" xmlns:xlink="http://www.w3.org/1999/xlink">
<g id="graph0" class="graph" transform="scale(1 1) rotate(0) translate(4 82)">
<title>include/Util.hpp</title>
<polygon fill="white" stroke="transparent" points="-4,4 -4,-82 177.94,-82 177.94,4 -4,4"/>
<!-- Node1 -->
<g id="node1" class="node">
<title>Node1</title>
<polygon fill="#bfbfbf" stroke="black" points="38.548,-57.5 38.548,-77.5 122.893,-77.5 122.893,-57.5 38.548,-57.5"/>
<text text-anchor="middle" x="80.7205" y="-64.5" font-family="Helvetica,sans-Serif" font-size="10.00">include/Util.hpp</text>
</g>
<!-- Node2 -->
<g id="node2" class="node">
<title>Node2</title>
<g id="a_node2"><a xlink:href="Util_8cpp.html" target="_top" xlink:title="Arquivo de declaração das funções do espaço &quot;util&quot;. ">
<polygon fill="white" stroke="black" points="0,-.5 0,-20.5 65.441,-20.5 65.441,-.5 0,-.5"/>
<text text-anchor="middle" x="32.7205" y="-7.5" font-family="Helvetica,sans-Serif" font-size="10.00">src/Util.cpp</text>
</a>
</g>
</g>
<!-- Node1&#45;&gt;Node2 -->
<g id="edge1" class="edge">
<title>Node1&#45;&gt;Node2</title>
<path fill="none" stroke="midnightblue" d="M65.5829,-49.5242C57.5451,-39.9792 47.9643,-28.602 41.2276,-20.6022"/>
<polygon fill="midnightblue" stroke="midnightblue" points="63.0205,-51.9149 72.1391,-57.3095 68.3749,-47.4059 63.0205,-51.9149"/>
</g>
<!-- Node3 -->
<g id="node3" class="node">
<title>Node3</title>
<g id="a_node3"><a xlink:href="WiSARD_8cpp.html" target="_top" xlink:title="Arquivo de implementação da classe WiSARD. ">
<polygon fill="white" stroke="black" points="83.501,-.5 83.501,-20.5 173.94,-20.5 173.94,-.5 83.501,-.5"/>
<text text-anchor="middle" x="128.7205" y="-7.5" font-family="Helvetica,sans-Serif" font-size="10.00">src/WiSARD.cpp</text>
</a>
</g>
</g>
<!-- Node1&#45;&gt;Node3 -->
<g id="edge2" class="edge">
<title>Node1&#45;&gt;Node3</title>
<path fill="none" stroke="midnightblue" d="M95.8581,-49.5242C103.8959,-39.9792 113.4767,-28.602 120.2134,-20.6022"/>
<polygon fill="midnightblue" stroke="midnightblue" points="93.0661,-47.4059 89.3019,-57.3095 98.4205,-51.9149 93.0661,-47.4059"/>
</g>
</g>
</svg>
