<?xml version="1.0" encoding="UTF-8" standalone="no"?>
<!DOCTYPE svg PUBLIC "-//W3C//DTD SVG 1.1//EN"
 "http://www.w3.org/Graphics/SVG/1.1/DTD/svg11.dtd">
<!-- Generated by graphviz version 2.41.20170704.2329 (20170704.2329)
 -->
<!-- Title: include/WiSARD.hpp Pages: 1 -->
<svg width="243pt" height="200pt"
 viewBox="0.00 0.00 242.78 200.00" xmlns="http://www.w3.org/2000/svg" xmlns:xlink="http://www.w3.org/1999/xlink">
<g id="graph0" class="graph" transform="scale(1 1) rotate(0) translate(4 196)">
<title>include/WiSARD.hpp</title>
<polygon fill="white" stroke="transparent" points="-4,4 -4,-196 238.782,-196 238.782,4 -4,4"/>
<!-- Node1 -->
<g id="node1" class="node">
<title>Node1</title>
<polygon fill="#bfbfbf" stroke="black" points="92.888,-171.5 92.888,-191.5 202.231,-191.5 202.231,-171.5 92.888,-171.5"/>
<text text-anchor="middle" x="147.5595" y="-178.5" font-family="Helvetica,sans-Serif" font-size="10.00">include/WiSARD.hpp</text>
</g>
<!-- Node2 -->
<g id="node2" class="node">
<title>Node2</title>
<g id="a_node2"><a xlink:href="Discriminator_8hpp.html" target="_top" xlink:title="Arquivo de declaração da classe Discriminator. ">
<polygon fill="white" stroke="black" points=".893,-114.5 .893,-134.5 100.226,-134.5 100.226,-114.5 .893,-114.5"/>
<text text-anchor="middle" x="50.5595" y="-121.5" font-family="Helvetica,sans-Serif" font-size="10.00">./Discriminator.hpp</text>
</a>
</g>
</g>
<!-- Node1&#45;&gt;Node2 -->
<g id="edge1" class="edge">
<title>Node1&#45;&gt;Node2</title>
<path fill="none" stroke="midnightblue" d="M130.2178,-171.3095C115.3207,-162.5556 93.6222,-149.8049 76.6323,-139.8211"/>
<polygon fill="midnightblue" stroke="midnightblue" points="78.1459,-136.651 67.751,-134.6022 74.5994,-142.6862 78.1459,-136.651"/>
</g>
<!-- Node4 -->
<g id="node4" class="node">
<title>Node4</title>
<polygon fill="white" stroke="#bfbfbf" points="59.271,-.5 59.271,-20.5 145.848,-20.5 145.848,-.5 59.271,-.5"/>
<text text-anchor="middle" x="102.5595" y="-7.5" font-family="Helvetica,sans-Serif" font-size="10.00">unordered_map</text>
</g>
<!-- Node1&#45;&gt;Node4 -->
<g id="edge7" class="edge">
<title>Node1&#45;&gt;Node4</title>
<path fill="none" stroke="midnightblue" d="M150.0315,-171.333C154.8335,-149.453 163.6125,-96.6721 147.5595,-57 142.9136,-45.5186 133.9232,-35.3021 125.1919,-27.3904"/>
<polygon fill="midnightblue" stroke="midnightblue" points="127.2796,-24.5726 117.3783,-20.8023 122.7674,-29.9242 127.2796,-24.5726"/>
</g>
<!-- Node5 -->
<g id="node5" class="node">
<title>Node5</title>
<polygon fill="white" stroke="#bfbfbf" points="94.9465,-57.5 94.9465,-77.5 138.1725,-77.5 138.1725,-57.5 94.9465,-57.5"/>
<text text-anchor="middle" x="116.5595" y="-64.5" font-family="Helvetica,sans-Serif" font-size="10.00">vector</text>
</g>
<!-- Node1&#45;&gt;Node5 -->
<g id="edge5" class="edge">
<title>Node1&#45;&gt;Node5</title>
<path fill="none" stroke="midnightblue" d="M144.8085,-171.3833C139.6969,-152.586 128.6502,-111.9627 121.9861,-87.4559"/>
<polygon fill="midnightblue" stroke="midnightblue" points="125.3504,-86.4891 119.3489,-77.7579 118.5957,-88.326 125.3504,-86.4891"/>
</g>
<!-- Node6 -->
<g id="node6" class="node">
<title>Node6</title>
<polygon fill="white" stroke="#bfbfbf" points="194.337,-114.5 194.337,-134.5 234.782,-134.5 234.782,-114.5 194.337,-114.5"/>
<text text-anchor="middle" x="214.5595" y="-121.5" font-family="Helvetica,sans-Serif" font-size="10.00">string</text>
</g>
<!-- Node1&#45;&gt;Node6 -->
<g id="edge6" class="edge">
<title>Node1&#45;&gt;Node6</title>
<path fill="none" stroke="midnightblue" d="M159.5378,-171.3095C169.3512,-162.9608 183.4375,-150.9769 194.9004,-141.2249"/>
<polygon fill="midnightblue" stroke="midnightblue" points="197.3363,-143.7479 202.6849,-134.6022 192.8004,-138.4162 197.3363,-143.7479"/>
</g>
<!-- Node3 -->
<g id="node3" class="node">
<title>Node3</title>
<g id="a_node3"><a xlink:href="Memory_8hpp.html" target="_top" xlink:title="Arquivo de declaração da classe Memory. ">
<polygon fill="white" stroke="black" points="0,-57.5 0,-77.5 77.119,-77.5 77.119,-57.5 0,-57.5"/>
<text text-anchor="middle" x="38.5595" y="-64.5" font-family="Helvetica,sans-Serif" font-size="10.00">./Memory.hpp</text>
</a>
</g>
</g>
<!-- Node2&#45;&gt;Node3 -->
<g id="edge2" class="edge">
<title>Node2&#45;&gt;Node3</title>
<path fill="none" stroke="midnightblue" d="M48.4141,-114.3095C46.8442,-106.8524 44.6637,-96.4951 42.7529,-87.4186"/>
<polygon fill="midnightblue" stroke="midnightblue" points="46.1714,-86.6667 40.6863,-77.6022 39.3215,-88.1088 46.1714,-86.6667"/>
</g>
<!-- Node2&#45;&gt;Node5 -->
<g id="edge4" class="edge">
<title>Node2&#45;&gt;Node5</title>
<path fill="none" stroke="midnightblue" d="M62.359,-114.3095C72.0259,-105.9608 85.902,-93.9769 97.1938,-84.2249"/>
<polygon fill="midnightblue" stroke="midnightblue" points="99.5816,-86.7874 104.8622,-77.6022 95.0062,-81.4896 99.5816,-86.7874"/>
</g>
<!-- Node3&#45;&gt;Node4 -->
<g id="edge3" class="edge">
<title>Node3&#45;&gt;Node4</title>
<path fill="none" stroke="midnightblue" d="M50.0014,-57.3095C59.2844,-49.0419 72.5701,-37.2093 83.461,-27.5096"/>
<polygon fill="midnightblue" stroke="midnightblue" points="86.0768,-29.8668 91.2166,-20.6022 81.4211,-24.6395 86.0768,-29.8668"/>
</g>
</g>
</svg>
