<?xml version="1.0" encoding="UTF-8" standalone="no"?>
<!DOCTYPE svg PUBLIC "-//W3C//DTD SVG 1.1//EN"
 "http://www.w3.org/Graphics/SVG/1.1/DTD/svg11.dtd">
<!-- Generated by graphviz version 2.41.20170704.2329 (20170704.2329)
 -->
<!-- Title: src/WiSARD.cpp Pages: 1 -->
<svg width="690pt" height="257pt"
 viewBox="0.00 0.00 689.95 257.00" xmlns="http://www.w3.org/2000/svg" xmlns:xlink="http://www.w3.org/1999/xlink">
<g id="graph0" class="graph" transform="scale(1 1) rotate(0) translate(4 253)">
<title>src/WiSARD.cpp</title>
<polygon fill="white" stroke="transparent" points="-4,4 -4,-253 685.949,-253 685.949,4 -4,4"/>
<!-- Node1 -->
<g id="node1" class="node">
<title>Node1</title>
<polygon fill="#bfbfbf" stroke="black" points="334.447,-228.5 334.447,-248.5 424.886,-248.5 424.886,-228.5 334.447,-228.5"/>
<text text-anchor="middle" x="379.6665" y="-235.5" font-family="Helvetica,sans-Serif" font-size="10.00">src/WiSARD.cpp</text>
</g>
<!-- Node2 -->
<g id="node2" class="node">
<title>Node2</title>
<g id="a_node2"><a xlink:href="WiSARD_8hpp.html" target="_top" xlink:title="Arquivo de declaração da classe WiSARD. ">
<polygon fill="white" stroke="black" points="73.8265,-171.5 73.8265,-191.5 191.5065,-191.5 191.5065,-171.5 73.8265,-171.5"/>
<text text-anchor="middle" x="132.6665" y="-178.5" font-family="Helvetica,sans-Serif" font-size="10.00">../include/WiSARD.hpp</text>
</a>
</g>
</g>
<!-- Node1&#45;&gt;Node2 -->
<g id="edge1" class="edge">
<title>Node1&#45;&gt;Node2</title>
<path fill="none" stroke="midnightblue" d="M336.0764,-228.4408C294.2308,-218.7841 230.9351,-204.1774 186.0792,-193.826"/>
<polygon fill="midnightblue" stroke="midnightblue" points="186.7665,-190.3927 176.2355,-191.5544 185.1924,-197.2134 186.7665,-190.3927"/>
</g>
<!-- Node3 -->
<g id="node3" class="node">
<title>Node3</title>
<g id="a_node3"><a xlink:href="Discriminator_8hpp.html" target="_top" xlink:title="Arquivo de declaração da classe Discriminator. ">
<polygon fill="white" stroke="black" points="0,-114.5 0,-134.5 99.333,-134.5 99.333,-114.5 0,-114.5"/>
<text text-anchor="middle" x="49.6665" y="-121.5" font-family="Helvetica,sans-Serif" font-size="10.00">./Discriminator.hpp</text>
</a>
</g>
</g>
<!-- Node1&#45;&gt;Node3 -->
<g id="edge9" class="edge">
<title>Node1&#45;&gt;Node3</title>
<path fill="none" stroke="midnightblue" d="M334.4122,-234.6523C252.0038,-227.2379 84.1186,-210.0977 64.6665,-192 51.9362,-180.1561 48.8095,-160.1062 48.4944,-144.9277"/>
<polygon fill="midnightblue" stroke="midnightblue" points="51.9939,-144.9815 48.6647,-134.9233 44.9949,-144.8623 51.9939,-144.9815"/>
</g>
<!-- Node7 -->
<g id="node7" class="node">
<title>Node7</title>
<polygon fill="white" stroke="#bfbfbf" points="202.444,-114.5 202.444,-134.5 242.889,-134.5 242.889,-114.5 202.444,-114.5"/>
<text text-anchor="middle" x="222.6665" y="-121.5" font-family="Helvetica,sans-Serif" font-size="10.00">string</text>
</g>
<!-- Node1&#45;&gt;Node7 -->
<g id="edge18" class="edge">
<title>Node1&#45;&gt;Node7</title>
<path fill="none" stroke="midnightblue" d="M334.2457,-228.5985C298.2074,-219.8501 251.7809,-206.291 238.6665,-192 226.9865,-179.2721 223.3722,-159.6163 222.4519,-144.7918"/>
<polygon fill="midnightblue" stroke="midnightblue" points="225.9454,-144.4966 222.1843,-134.5919 218.9478,-144.6803 225.9454,-144.4966"/>
</g>
<!-- Node8 -->
<g id="node8" class="node">
<title>Node8</title>
<g id="a_node8"><a xlink:href="Util_8hpp.html" target="_top" xlink:title="Arquivo de declaração das funções do espaço &quot;util&quot;. ">
<polygon fill="white" stroke="black" points="247.3255,-171.5 247.3255,-191.5 340.0075,-191.5 340.0075,-171.5 247.3255,-171.5"/>
<text text-anchor="middle" x="293.6665" y="-178.5" font-family="Helvetica,sans-Serif" font-size="10.00">../include/Util.hpp</text>
</a>
</g>
</g>
<!-- Node1&#45;&gt;Node8 -->
<g id="edge10" class="edge">
<title>Node1&#45;&gt;Node8</title>
<path fill="none" stroke="midnightblue" d="M364.2914,-228.3095C351.3282,-219.7177 332.5563,-207.2758 317.6237,-197.3786"/>
<polygon fill="midnightblue" stroke="midnightblue" points="319.1775,-194.2095 308.9085,-191.6022 315.3102,-200.0443 319.1775,-194.2095"/>
</g>
<!-- Node9 -->
<g id="node9" class="node">
<title>Node9</title>
<polygon fill="white" stroke="#bfbfbf" points="358.0535,-171.5 358.0535,-191.5 401.2795,-191.5 401.2795,-171.5 358.0535,-171.5"/>
<text text-anchor="middle" x="379.6665" y="-178.5" font-family="Helvetica,sans-Serif" font-size="10.00">cmath</text>
</g>
<!-- Node1&#45;&gt;Node9 -->
<g id="edge13" class="edge">
<title>Node1&#45;&gt;Node9</title>
<path fill="none" stroke="midnightblue" d="M379.6665,-228.3095C379.6665,-220.9335 379.6665,-210.72 379.6665,-201.715"/>
<polygon fill="midnightblue" stroke="midnightblue" points="383.1666,-201.6022 379.6665,-191.6022 376.1666,-201.6023 383.1666,-201.6022"/>
</g>
<!-- Node10 -->
<g id="node10" class="node">
<title>Node10</title>
<polygon fill="white" stroke="#bfbfbf" points="419.5,-171.5 419.5,-191.5 473.833,-191.5 473.833,-171.5 419.5,-171.5"/>
<text text-anchor="middle" x="446.6665" y="-178.5" font-family="Helvetica,sans-Serif" font-size="10.00">iostream</text>
</g>
<!-- Node1&#45;&gt;Node10 -->
<g id="edge14" class="edge">
<title>Node1&#45;&gt;Node10</title>
<path fill="none" stroke="midnightblue" d="M391.6448,-228.3095C401.4582,-219.9608 415.5445,-207.9769 427.0074,-198.2249"/>
<polygon fill="midnightblue" stroke="midnightblue" points="429.4433,-200.7479 434.7919,-191.6022 424.9074,-195.4162 429.4433,-200.7479"/>
</g>
<!-- Node11 -->
<g id="node11" class="node">
<title>Node11</title>
<polygon fill="white" stroke="#bfbfbf" points="491.7195,-171.5 491.7195,-191.5 541.6135,-191.5 541.6135,-171.5 491.7195,-171.5"/>
<text text-anchor="middle" x="516.6665" y="-178.5" font-family="Helvetica,sans-Serif" font-size="10.00">random</text>
</g>
<!-- Node1&#45;&gt;Node11 -->
<g id="edge15" class="edge">
<title>Node1&#45;&gt;Node11</title>
<path fill="none" stroke="midnightblue" d="M403.844,-228.4408C425.8159,-219.2992 458.4497,-205.7216 482.9755,-195.5174"/>
<polygon fill="midnightblue" stroke="midnightblue" points="484.3816,-198.7233 492.2699,-191.6504 481.6926,-192.2604 484.3816,-198.7233"/>
</g>
<!-- Node12 -->
<g id="node12" class="node">
<title>Node12</title>
<polygon fill="white" stroke="#bfbfbf" points="560.111,-171.5 560.111,-191.5 617.222,-191.5 617.222,-171.5 560.111,-171.5"/>
<text text-anchor="middle" x="588.6665" y="-178.5" font-family="Helvetica,sans-Serif" font-size="10.00">algorithm</text>
</g>
<!-- Node1&#45;&gt;Node12 -->
<g id="edge16" class="edge">
<title>Node1&#45;&gt;Node12</title>
<path fill="none" stroke="midnightblue" d="M416.7045,-228.475C449.3184,-219.6371 498.3598,-206.3223 550.3061,-192.0915"/>
<polygon fill="midnightblue" stroke="midnightblue" points="551.3171,-195.4435 560.0361,-189.4245 549.4666,-188.6925 551.3171,-195.4435"/>
</g>
<!-- Node13 -->
<g id="node13" class="node">
<title>Node13</title>
<polygon fill="white" stroke="#bfbfbf" points="635.384,-171.5 635.384,-191.5 681.949,-191.5 681.949,-171.5 635.384,-171.5"/>
<text text-anchor="middle" x="658.6665" y="-178.5" font-family="Helvetica,sans-Serif" font-size="10.00">chrono</text>
</g>
<!-- Node1&#45;&gt;Node13 -->
<g id="edge17" class="edge">
<title>Node1&#45;&gt;Node13</title>
<path fill="none" stroke="midnightblue" d="M425.1293,-231.7731C472.8401,-224.3079 550.1447,-211.0682 625.2518,-192.1269"/>
<polygon fill="midnightblue" stroke="midnightblue" points="626.5326,-195.412 635.3521,-189.5412 624.7965,-188.6307 626.5326,-195.412"/>
</g>
<!-- Node2&#45;&gt;Node3 -->
<g id="edge2" class="edge">
<title>Node2&#45;&gt;Node3</title>
<path fill="none" stroke="midnightblue" d="M117.8278,-171.3095C105.3168,-162.7177 87.1996,-150.2758 72.788,-140.3786"/>
<polygon fill="midnightblue" stroke="midnightblue" points="74.6015,-137.3782 64.3768,-134.6022 70.6387,-143.1485 74.6015,-137.3782"/>
</g>
<!-- Node5 -->
<g id="node5" class="node">
<title>Node5</title>
<polygon fill="white" stroke="#bfbfbf" points="131.378,-.5 131.378,-20.5 217.955,-20.5 217.955,-.5 131.378,-.5"/>
<text text-anchor="middle" x="174.6665" y="-7.5" font-family="Helvetica,sans-Serif" font-size="10.00">unordered_map</text>
</g>
<!-- Node2&#45;&gt;Node5 -->
<g id="edge8" class="edge">
<title>Node2&#45;&gt;Node5</title>
<path fill="none" stroke="midnightblue" d="M135.168,-171.3153C141.9218,-143.8178 160.6236,-67.6748 169.6561,-30.8993"/>
<polygon fill="midnightblue" stroke="midnightblue" points="173.1387,-31.3938 172.125,-20.8476 166.3407,-29.7241 173.1387,-31.3938"/>
</g>
<!-- Node6 -->
<g id="node6" class="node">
<title>Node6</title>
<polygon fill="white" stroke="#bfbfbf" points="103.0535,-57.5 103.0535,-77.5 146.2795,-77.5 146.2795,-57.5 103.0535,-57.5"/>
<text text-anchor="middle" x="124.6665" y="-64.5" font-family="Helvetica,sans-Serif" font-size="10.00">vector</text>
</g>
<!-- Node2&#45;&gt;Node6 -->
<g id="edge6" class="edge">
<title>Node2&#45;&gt;Node6</title>
<path fill="none" stroke="midnightblue" d="M131.9566,-171.3833C130.6434,-152.6703 127.8122,-112.3266 126.0901,-87.7866"/>
<polygon fill="midnightblue" stroke="midnightblue" points="129.5779,-87.4884 125.3864,-77.7579 122.5951,-87.9785 129.5779,-87.4884"/>
</g>
<!-- Node2&#45;&gt;Node7 -->
<g id="edge7" class="edge">
<title>Node2&#45;&gt;Node7</title>
<path fill="none" stroke="midnightblue" d="M148.7567,-171.3095C162.4508,-162.6366 182.3391,-150.0407 198.0362,-140.0992"/>
<polygon fill="midnightblue" stroke="midnightblue" points="200.1401,-142.9097 206.7156,-134.6022 196.3947,-136.9959 200.1401,-142.9097"/>
</g>
<!-- Node4 -->
<g id="node4" class="node">
<title>Node4</title>
<g id="a_node4"><a xlink:href="Memory_8hpp.html" target="_top" xlink:title="Arquivo de declaração da classe Memory. ">
<polygon fill="white" stroke="black" points="8.107,-57.5 8.107,-77.5 85.226,-77.5 85.226,-57.5 8.107,-57.5"/>
<text text-anchor="middle" x="46.6665" y="-64.5" font-family="Helvetica,sans-Serif" font-size="10.00">./Memory.hpp</text>
</a>
</g>
</g>
<!-- Node3&#45;&gt;Node4 -->
<g id="edge3" class="edge">
<title>Node3&#45;&gt;Node4</title>
<path fill="none" stroke="midnightblue" d="M49.1302,-114.3095C48.7419,-106.9335 48.2044,-96.72 47.7304,-87.715"/>
<polygon fill="midnightblue" stroke="midnightblue" points="51.219,-87.4044 47.1982,-77.6022 44.2287,-87.7724 51.219,-87.4044"/>
</g>
<!-- Node3&#45;&gt;Node6 -->
<g id="edge5" class="edge">
<title>Node3&#45;&gt;Node6</title>
<path fill="none" stroke="midnightblue" d="M63.075,-114.3095C74.2735,-105.7987 90.4426,-93.5102 103.4042,-83.6594"/>
<polygon fill="midnightblue" stroke="midnightblue" points="105.5303,-86.4397 111.3741,-77.6022 101.2946,-80.8665 105.5303,-86.4397"/>
</g>
<!-- Node4&#45;&gt;Node5 -->
<g id="edge4" class="edge">
<title>Node4&#45;&gt;Node5</title>
<path fill="none" stroke="midnightblue" d="M69.2557,-57.4408C89.6025,-48.3801 119.7353,-34.9615 142.5787,-24.7891"/>
<polygon fill="midnightblue" stroke="midnightblue" points="144.1612,-27.9158 151.8726,-20.6504 141.3136,-21.5212 144.1612,-27.9158"/>
</g>
<!-- Node8&#45;&gt;Node5 -->
<g id="edge12" class="edge">
<title>Node8&#45;&gt;Node5</title>
<path fill="none" stroke="midnightblue" d="M287.6618,-171.2689C279.7325,-157.8975 265.1893,-133.8465 251.6665,-114 230.7946,-83.3677 204.7261,-49.0828 188.9045,-28.6719"/>
<polygon fill="midnightblue" stroke="midnightblue" points="191.5086,-26.3194 182.6037,-20.5789 185.9852,-30.6196 191.5086,-26.3194"/>
</g>
<!-- Node8&#45;&gt;Node7 -->
<g id="edge11" class="edge">
<title>Node8&#45;&gt;Node7</title>
<path fill="none" stroke="midnightblue" d="M280.9731,-171.3095C270.4729,-162.8798 255.3563,-150.7439 243.1463,-140.9415"/>
<polygon fill="midnightblue" stroke="midnightblue" points="245.2391,-138.1333 235.25,-134.6022 240.8568,-143.5919 245.2391,-138.1333"/>
</g>
</g>
</svg>
